<?xml version="1.0" standalone="no"?><!DOCTYPE svg PUBLIC "-//W3C//DTD SVG 1.1//EN" "http://www.w3.org/Graphics/SVG/1.1/DTD/svg11.dtd"><svg t="1561090779322" class="icon" viewBox="0 0 1024 1024" version="1.1" xmlns="http://www.w3.org/2000/svg" p-id="7287" xmlns:xlink="http://www.w3.org/1999/xlink" width="200" height="200"><defs><style type="text/css"></style></defs><path d="M972.8 0H798.72c-14.14 0-25.6 11.462-25.6 25.6 0 14.137 11.46 25.6 25.6 25.6H921.6c3.94 0 7.761 0.487 11.445 1.33-4.805 2.635-9.535 6.205-13.82 10.693L156.647 862.225c-15.042 15.761-18.935 36.44-8.71 46.21 10.228 9.761 30.71 4.905 45.755-10.864L956.265 98.58c5.335-5.595 9.235-11.808 11.636-17.935 3.109 6.61 4.899 13.965 4.899 21.755v114.345c0 14.14 11.46 25.6 25.601 25.6 14.14 0 25.6-11.46 25.6-25.6V51.2C1024 22.92 1001.075 0 972.8 0z" fill="#231815" p-id="7288"></path><path d="M998.4 591.36c-14.136 0-25.601 11.46-25.601 25.6 0 1.755 0.181 3.465 0.516 5.12h-0.515V921.6c0 28.275-22.92 51.2-51.2 51.2H102.4c-28.275 0-51.2-22.925-51.2-51.2V102.4c0-28.28 22.925-51.2 51.2-51.2h291.84v-0.095c13.69-0.507 24.657-11.69 24.657-25.505S407.93 0.603 394.24 0.095V0H51.2C22.922 0 0 22.92 0 51.2v921.6c0 28.275 22.922 51.2 51.2 51.2h921.6c28.275 0 51.2-22.925 51.2-51.2V622.08h-0.515a25.77 25.77 0 0 0 0.515-5.12c0-14.14-11.46-25.6-25.6-25.6z" fill="#231815" p-id="7289"></path></svg>